# xmcd CD database file
#
# Track frame offsets:
#	150
#	23475
#	46455
#	73433
#	101167
#	119587
#	135987
#	155259
#	178615
#	197100
#	221355
#	258434
#	272632
#	297113
#
# Disc length: 4330 seconds
#
# Revision: 7
# Processed by: cddbd v1.5.2PL0 Copyright (c) Steve Scherf et al.
# Submitted via: CDex 1.70beta2
#
DISCID=d010e80e
DTITLE=Dzem - Gwiazdy Polskiej Muzyki Lat 80 vol.07
DYEAR=2007
DGENRE=Blues
TTITLE0=Czerwony jak cegla
TTITLE1=Whisky
TTITLE2=Paw
TTITLE3=Ballada o dziwnym malarzu
TTITLE4=Kim jestem - jestem sobie
TTITLE5=Wokol sami lunatycy
TTITLE6=Dzien, w ktorym peklo niebo
TTITLE7=Mala Aleja Roz
TTITLE8=Harley moj
TTITLE9=Naiwne pytania
TTITLE10=Modlitwa III - Pozwol mi
TTITLE11=Poznalem go po czarnym kapeluszu
TTITLE12=Skazany na bluesa
TTITLE13=Wehikul czasu, bylby cud
EXTD=YEAR: 2007
EXTT0=
EXTT1=
EXTT2=
EXTT3=
EXTT4=
EXTT5=
EXTT6=
EXTT7=
EXTT8=
EXTT9=
EXTT10=
EXTT11=
EXTT12=
EXTT13=
PLAYORDER=
